<svg width="18" height="22" viewBox="0 0 18 22" fill="none" xmlns="http://www.w3.org/2000/svg">
<path d="M14.625 0.25H3.375C2.57963 0.25091 1.8171 0.567272 1.25468 1.12968C0.692272 1.6921 0.37591 2.45463 0.375 3.25V15.25C0.37591 16.0454 0.692272 16.8079 1.25468 17.3703C1.8171 17.9327 2.57963 18.2491 3.375 18.25H4.49998L3.14996 20.05C3.03062 20.2092 2.97938 20.4092 3.00753 20.6061C3.03567 20.803 3.14088 20.9807 3.30002 21.1C3.45916 21.2194 3.65919 21.2706 3.85611 21.2425C4.05302 21.2143 4.23069 21.1091 4.35004 20.95L6.37502 18.25H11.625L13.65 20.95C13.7693 21.1091 13.947 21.2143 14.1439 21.2425C14.3408 21.2706 14.5408 21.2194 14.7 21.1C14.8591 20.9807 14.9643 20.803 14.9925 20.6061C15.0206 20.4092 14.9694 20.2092 14.85 20.05L13.5 18.25H14.625C15.4204 18.2491 16.1829 17.9327 16.7453 17.3703C17.3077 16.8079 17.6241 16.0454 17.625 15.25V3.25C17.6241 2.45463 17.3077 1.6921 16.7453 1.12968C16.1829 0.567272 15.4204 0.25091 14.625 0.25ZM14.625 16.75H3.375C2.97731 16.7495 2.59605 16.5914 2.31484 16.3102C2.03364 16.029 1.87545 15.6477 1.875 15.25V10.75H16.125V15.25C16.1245 15.6477 15.9664 16.029 15.6852 16.3102C15.404 16.5914 15.0227 16.7495 14.625 16.75Z" fill="#7D7F88"/>
<path d="M4.875 15.25C5.49632 15.25 6 14.7463 6 14.125C6 13.5037 5.49632 13 4.875 13C4.25368 13 3.75 13.5037 3.75 14.125C3.75 14.7463 4.25368 15.25 4.875 15.25Z" fill="#7D7F88"/>
<path d="M13.125 15.25C13.7463 15.25 14.25 14.7463 14.25 14.125C14.25 13.5037 13.7463 13 13.125 13C12.5037 13 12 13.5037 12 14.125C12 14.7463 12.5037 15.25 13.125 15.25Z" fill="#7D7F88"/>
</svg>
