<svg width="21" height="21" viewBox="0 0 21 21" fill="none" xmlns="http://www.w3.org/2000/svg">
<path d="M13.7587 10.5C13.7582 8.94403 14.1697 7.41567 14.9514 6.07031L15.264 5.52645C14.6088 5.37053 13.9413 5.2724 13.269 5.23318C12.3691 4.54002 11.0279 3.71766 9.48158 3.45598L8.53125 3.28125L9.07963 5.81848C7.37051 6.39844 5.86277 7.57641 4.86486 8.38687C4.67182 8.22527 4.46975 8.06736 4.25865 7.91314C2.62992 6.72369 0.870762 6.60885 0.796934 6.60475L0 6.5625L0.109512 7.35451C0.121406 7.43654 0.388008 9.18914 1.40766 10.493C0.388008 11.7973 0.123047 13.5487 0.109512 13.632L0 14.4375L0.796934 14.3817C0.870762 14.3776 2.62992 14.2632 4.25865 13.0733C4.46592 12.9221 4.66498 12.7667 4.85584 12.607C5.85539 13.4203 7.36353 14.6003 9.07471 15.1803L8.53125 17.7188L9.48158 17.5457C11.0193 17.2856 12.356 16.4629 13.255 15.7689C13.9367 15.7294 14.6136 15.6302 15.2779 15.4723L14.9535 14.9317C14.1709 13.5859 13.7586 12.0568 13.7587 10.5Z" fill="#7D7F88"/>
<path d="M20.4911 9.09522C20.2511 8.68998 19.8127 8.07393 19.0888 7.44311C18.3352 6.79411 17.4748 6.28065 16.5458 5.92553L16.0877 6.72656C15.4226 7.87181 15.0719 9.17248 15.0713 10.4968C15.0706 11.8212 15.42 13.1222 16.084 14.2681L16.5659 15.0708C17.4852 14.72 18.3373 14.2137 19.0851 13.5741C20.3869 12.447 21.0001 11.0332 21.0001 10.5C21.0001 9.9951 20.672 9.40324 20.4911 9.09522ZM17.0626 10.5C16.9328 10.5 16.8059 10.4615 16.698 10.3894C16.5901 10.3173 16.506 10.2148 16.4563 10.0949C16.4066 9.97497 16.3936 9.84302 16.419 9.71572C16.4443 9.58842 16.5068 9.47149 16.5986 9.37971C16.6903 9.28794 16.8073 9.22543 16.9346 9.20011C17.0619 9.17479 17.1938 9.18779 17.3137 9.23746C17.4336 9.28713 17.5361 9.37124 17.6082 9.47916C17.6804 9.58708 17.7188 9.71396 17.7188 9.84375C17.7188 10.0178 17.6497 10.1847 17.5266 10.3078C17.4036 10.4309 17.2366 10.5 17.0626 10.5Z" fill="#7D7F88"/>
</svg>
