<svg width="17" height="20" viewBox="0 0 17 20" fill="none" xmlns="http://www.w3.org/2000/svg">
<path d="M8.99895 5.47895C8.99854 5.4654 8.99803 5.45185 8.99688 5.43821C8.99574 5.42452 8.99405 5.41102 8.99222 5.39756C8.99121 5.3906 8.99093 5.38369 8.98979 5.37669L8.23979 0.876685C8.22365 0.779483 8.18852 0.686414 8.1364 0.602796C8.08427 0.519178 8.01619 0.446649 7.93602 0.389355C7.85586 0.332061 7.7652 0.291124 7.66921 0.268883C7.57322 0.246642 7.47379 0.243534 7.3766 0.259735C7.2794 0.275937 7.18636 0.311131 7.10277 0.363306C7.01919 0.415481 6.9467 0.483615 6.88946 0.563815C6.83222 0.644014 6.79134 0.734707 6.76916 0.830711C6.74699 0.926714 6.74394 1.02615 6.76021 1.12333L7.36464 4.75001H5.625V1.00001C5.625 0.801094 5.54598 0.610329 5.40533 0.469676C5.26468 0.329024 5.07391 0.250007 4.875 0.250007C4.67609 0.250007 4.48532 0.329024 4.34467 0.469676C4.20402 0.610329 4.125 0.801094 4.125 1.00001V4.75001H2.38536L2.98979 1.12333C3.00606 1.02615 3.00301 0.926714 2.98083 0.830711C2.95866 0.734707 2.91778 0.644014 2.86053 0.563815C2.80329 0.483615 2.73081 0.415481 2.64722 0.363306C2.56364 0.311131 2.47059 0.275937 2.3734 0.259735C2.27621 0.243534 2.17678 0.246642 2.08079 0.268883C1.9848 0.291124 1.89413 0.332061 1.81397 0.389355C1.73381 0.446649 1.66572 0.519178 1.6136 0.602796C1.56148 0.686414 1.52635 0.779483 1.51021 0.876685L0.760208 5.37669C0.759064 5.38369 0.758789 5.3906 0.757782 5.39756C0.755951 5.41102 0.754257 5.42452 0.753112 5.43821C0.751969 5.45185 0.751464 5.4654 0.75105 5.47895C0.75087 5.486 0.75 5.49291 0.75 5.50001C0.75 5.50669 0.750458 5.51324 0.750504 5.51987C0.750641 5.5245 0.750641 5.52908 0.75087 5.53365C0.759927 6.49121 1.1014 7.41588 1.71687 8.14949C2.33235 8.8831 3.18359 9.38008 4.125 9.55543V19C4.125 19.1989 4.20402 19.3897 4.34467 19.5303C4.48532 19.671 4.67609 19.75 4.875 19.75C5.07391 19.75 5.26468 19.671 5.40533 19.5303C5.54598 19.3897 5.625 19.1989 5.625 19V9.55543C6.56641 9.38008 7.41765 8.8831 8.03313 8.14949C8.6486 7.41587 8.99007 6.49121 8.99913 5.53365C8.99936 5.52907 8.99936 5.5245 8.9995 5.51987C8.99954 5.51324 9 5.50669 9 5.50001C9 5.49291 8.99913 5.486 8.99895 5.47895Z" fill="#7D7F88"/>
<path d="M16.8743 0.986725C16.874 0.971256 16.8732 0.95578 16.8719 0.940261C16.8711 0.929733 16.8702 0.919296 16.8689 0.908905C16.8673 0.895951 16.8653 0.882995 16.863 0.870041C16.8607 0.856995 16.8582 0.844085 16.8552 0.831314C16.8529 0.821152 16.8502 0.811036 16.8474 0.800918C16.8432 0.785858 16.8388 0.771027 16.8337 0.756378C16.8323 0.752167 16.8313 0.74791 16.8298 0.743698C16.8281 0.739166 16.826 0.734955 16.8242 0.730469C16.8186 0.715774 16.8125 0.70134 16.8059 0.687165C16.8017 0.677915 16.7973 0.66879 16.7927 0.65979C16.7866 0.647705 16.7801 0.635819 16.7732 0.62413C16.7672 0.613648 16.761 0.603348 16.7545 0.593231C16.7483 0.58371 16.7419 0.574463 16.7353 0.565216C16.7274 0.554046 16.7193 0.543106 16.7108 0.532486C16.7046 0.524658 16.6981 0.517105 16.6916 0.509552C16.6822 0.498749 16.6727 0.488083 16.6627 0.477874C16.6558 0.470733 16.6486 0.463867 16.6413 0.457001C16.6313 0.44748 16.6213 0.438141 16.6108 0.429214C16.6024 0.422027 16.5936 0.415253 16.5849 0.408432C16.5751 0.400833 16.5652 0.39328 16.5551 0.386139C16.5447 0.37886 16.534 0.37204 16.5232 0.365311C16.5141 0.359592 16.505 0.353821 16.4956 0.348511C16.4834 0.341552 16.4709 0.335144 16.4583 0.328873C16.4496 0.32457 16.441 0.320267 16.4322 0.316284C16.4189 0.310333 16.4054 0.304932 16.3917 0.299713C16.3826 0.29628 16.3736 0.292847 16.3644 0.289734C16.3513 0.285293 16.338 0.281403 16.3246 0.277695C16.3138 0.274719 16.3032 0.271927 16.2924 0.269409C16.2805 0.266708 16.2684 0.264374 16.2563 0.262222C16.2432 0.259842 16.23 0.257828 16.2167 0.25618C16.2065 0.254943 16.1962 0.253936 16.1859 0.253066C16.1706 0.251831 16.1551 0.251053 16.1396 0.250732C16.1347 0.250641 16.1299 0.25 16.125 0.25C16.1204 0.25 16.116 0.250595 16.1115 0.250686C16.0961 0.250961 16.0807 0.251785 16.0653 0.253022C16.0547 0.253846 16.0443 0.254803 16.0338 0.256088C16.0209 0.25769 16.008 0.259705 15.995 0.261994C15.982 0.264283 15.969 0.266801 15.9563 0.269776C15.9461 0.27211 15.936 0.274765 15.9259 0.277557C15.9108 0.281676 15.896 0.286208 15.8813 0.291289C15.8771 0.292709 15.8729 0.293624 15.8687 0.295133C15.8594 0.29852 15.8503 0.302549 15.8411 0.305982C15.8376 0.3074 15.8341 0.308637 15.8306 0.310101C13.8984 1.03625 12.3511 3.4066 11.2315 7.35806C10.7236 9.18144 10.3551 11.0408 10.1293 12.9201C10.1181 13.0247 10.129 13.1305 10.1614 13.2306C10.1937 13.3308 10.2468 13.423 10.3171 13.5012C10.3875 13.5795 10.4735 13.6421 10.5696 13.685C10.6657 13.7278 10.7697 13.75 10.875 13.75H15.375V19C15.375 19.1989 15.454 19.3897 15.5946 19.5303C15.7353 19.671 15.9261 19.75 16.125 19.75C16.3239 19.75 16.5146 19.671 16.6553 19.5303C16.7959 19.3897 16.875 19.1989 16.875 19V1C16.875 0.995514 16.8744 0.991211 16.8743 0.986725Z" fill="#7D7F88"/>
</svg>
